<?xml version="1.0" encoding="UTF-8"?>
<svg xmlns="http://www.w3.org/2000/svg" viewBox="0 0 600 200" width="600" height="200">
  <g transform="translate(300, 130) scale(0.9, -0.9)">
    <!-- g -->
    <g transform="translate(-244, 0)">
      <path fill="#ffffff" d="M 0,0 C 21.098,0 34.972,16.475 34.972,40.753 34.972,65.899 21.098,82.084 0,82.084 -20.522,82.084 -33.817,66.188 -33.817,41.042 -33.817,15.897 -20.811,0 0,0 m -66.768,-41.042 h 34.007 c 1.215,0 2.206,-0.917 2.384,-2.119 2.065,-13.944 10.543,-22.188 24.466,-24.249 21.777,-3.222 41.172,14.24 41.172,36.254 v 12.133 c 0,2.288 -2.844,3.265 -4.296,1.497 -8.953,-10.908 -22.82,-17.158 -38.769,-17.158 -37.863,0 -66.188,32.083 -66.188,75.726 0,44.8 26.59,75.726 64.743,75.726 18.3,0 32.577,-6.259 43.421,-18.58 1.492,-1.695 4.268,-0.711 4.268,1.548 v 11.723 c 0,1.336 1.083,2.419 2.419,2.419 h 31.87 c 1.336,0 2.418,-1.083 2.418,-2.419 V -33.238 c 0,-41.043 -27.747,-65.899 -73.414,-65.899 -40.595,0 -67.993,21.449 -70.926,55.495 -0.12,1.399 1.021,2.6 2.425,2.6"/>
    </g>
    <!-- ll -->
    <g transform="translate(-162, -41)">
      <path fill="#ffffff" d="m 0,0 v 190.791 c 0,1.336 1.083,2.419 2.418,2.419 h 35.628 c 1.335,0 2.418,-1.083 2.418,-2.419 V 0 c 0,-1.336 -1.083,-2.418 -2.418,-2.418 H 2.418 C 1.083,-2.418 0,-1.336 0,0"/>
    </g>
    <g transform="translate(-115, -41)">
      <path fill="#ffffff" d="m 0,0 v 190.791 c 0,1.336 1.083,2.419 2.418,2.419 h 35.628 c 1.335,0 2.418,-1.083 2.418,-2.419 V 0 c 0,-1.336 -1.083,-2.418 -2.418,-2.418 H 2.418 C 1.083,-2.418 0,-1.336 0,0"/>
    </g>
    <!-- uga -->
    <g transform="translate(300, 51)">
      <path fill="#ffffff" d="m 0,0 c 0,-1.442 -1.261,-2.563 -2.694,-2.4 -8.297,0.945 -15.19,1.417 -23.029,1.417 -31.912,0 -53.352,-8.136 -63.183,-23.534 -0.313,-0.49 -1.067,-0.267 -1.067,0.314 v 29.81 c 0,0.506 0.41,0.915 0.915,0.916 l 31.111,0.009 c 1.232,0 2.235,0.937 2.395,2.158 2.105,16.02 12.352,25.3 28.961,25.3 C -9.827,33.99 0,23.874 0,6.532 Z m 0,-37.978 c 0,-17.92 -12.428,-29.193 -32.95,-29.193 -15.029,0 -24.278,8.094 -24.278,21.1 0,13.873 11.272,21.099 34.106,21.099 6.421,0 12.593,-0.495 21.039,-1.715 C -0.895,-26.858 0,-27.884 0,-29.084 Z m -129.859,-44.881 c 0,-21.838 -19.132,-39.163 -40.764,-36.172 -14.191,1.962 -22.82,10.257 -24.886,24.385 -0.171,1.174 -1.186,2.041 -2.372,2.041 h -34.007 c -0.527,0 -1.24,0.009 -1.24,0.907 v 44.319 c 0,0.897 1.213,1.151 1.585,0.335 10.854,-23.872 32.453,-39.202 58.618,-39.202 15.974,0 29.859,6.269 38.811,17.207 1.426,1.742 4.255,0.705 4.255,-1.546 z M -165.12,30.522 c 21.098,0 34.972,-16.186 34.972,-41.332 0,-24.278 -13.874,-40.753 -34.972,-40.753 -20.811,0 -33.817,15.897 -33.817,41.043 0,25.145 13.295,41.042 33.817,41.042 m 138.529,34.683 c -30.757,0 -53.594,-15.766 -61.958,-41.236 -0.26,-0.791 -1.424,-0.607 -1.424,0.227 v 35.701 c 0,1.335 -1.083,2.418 -2.418,2.418 h -31.87 c -1.336,0 -2.419,-1.083 -2.419,-2.418 V 48.173 c 0,-2.225 -2.755,-3.27 -4.223,-1.598 -10.85,12.354 -25.141,18.63 -43.466,18.63 -26.391,0 -47.249,-14.797 -57.601,-38.748 -0.261,-0.604 -1.158,-0.42 -1.158,0.238 v 33.202 c 0,1.335 -1.083,2.418 -2.419,2.418 h -35.049 c -1.336,0 -2.419,-1.083 -2.419,-2.418 v -89.654 c 0,-20.81 -13.872,-32.371 -28.324,-32.371 -16.186,0 -26.88,9.538 -26.88,31.215 v 90.81 c 0,1.335 -1.083,2.418 -2.419,2.418 h -35.338 c -1.336,0 -2.419,-1.083 -2.419,-2.418 v -98.614 c 0,-40.175 22.546,-58.962 53.472,-58.962 16.793,0 31.688,6.964 40.896,17.466 1.453,1.657 4.192,0.586 4.192,-1.617 v -10.54 c 0,-1.336 1.082,-2.419 2.418,-2.419 h 31.87 c 0.998,0 1.192,-0.442 1.219,-0.751 2.933,-34.047 30.345,-55.16 70.941,-55.16 45.667,0 73.414,24.856 73.414,65.899 v 13.278 c 0,0.542 0.715,0.735 0.985,0.266 8.506,-14.826 25.408,-23.66 47.368,-23.66 18.354,0 32.334,5.687 42.321,16.68 1.491,1.642 4.213,0.606 4.213,-1.611 V -92.37 c 0,-1.336 1.083,-2.419 2.419,-2.419 h 27.822 c 1.336,0 2.419,1.083 2.419,2.419 V 5.087 c 0,37.863 -23.7,60.118 -64.165,60.118"/>
    </g>
  </g>
</svg>
